<svg xmlns="http://www.w3.org/2000/svg" width="512" height="512" viewBox="0 0 512 512"><path fill="white" stroke="none" d="M253 2.74C263.72.25 266.85 10.18 271.81 18c1.4 2.21 3.64 5.88 6.23 6.75 3.84 1.29 7.07-3.32 9.24-5.75 4.07-4.55 11.87-14 18.7-12.39 10.34 2.44 8.69 24.32 18.04 26.98 3.03.86 6.71-2.12 8.98-3.83 4.61-3.46 12.77-10.39 19-9.1 11.26 2.35 5.8 23.96 12.42 29.6 2.9 2.85 5.58 1.36 8.58 0 6.83-3.13 25.34-13.42 27.89 0V58l-.81 11c.12 6.38 3.6 9.85 9.96 8.75 6.62-1.14 20.03-7.05 25.65-1.44 5.29 5.3-.09 19.24-1.27 25.69-1.17 6.36 2.27 9.8 8.58 9.92l11-.77h4c1.52-.13 3.53-.13 4.85 0 11.63 3.52 2.72 19.22 0 25.85-1.29 2.7-3.59 6.89-1.9 9.73 4.62 7.77 26.63 2.21 30.12 12.29 2.3 6.63-5.82 15.99-9.43 20.98-1.69 2.34-4.46 5.74-3.25 8.82 3.18 8.1 25.99 7.15 27.16 18.18.68 6.35-8.22 13.84-12.55 17.72-2.18 1.95-6.3 4.95-5.97 8.27.31 3.13 4.53 5.68 6.97 7.15 5.86 3.52 16.57 8.67 15.81 16.86-.64 6.93-10.54 11.51-15.81 14.81-2.42 1.52-6.66 4.07-6.97 7.2-.33 3.32 3.79 6.32 5.97 8.27 4.6 4.12 13.8 11.76 12.34 18.71-2.19 10.44-23.98 9.32-26.95 17.11-1.21 3.16 1.52 6.5 3.25 8.9 3.61 4.99 11.73 14.35 9.43 20.98-3.56 10.3-25.46 4.68-30.23 12.24-1.89 3 .16 6.92 1.47 9.78 2.4 5.26 8.26 15.16 5.95 20.95-4.5 11.26-25.89-.84-33 7.33-2.35 2.91-.95 6.44 0 9.72 1.18 5.31 4.46 15.93 1.72 21.19-4.39 7.78-19.15 1.54-25.98 0-5.66-.82-9.52.61-10.27 6.81v16c.26 1.74.3 4.34 0 5.98-3.69 12.54-21.04 1.23-27.73-1.59-2.98-1.36-5.85-2.42-8.57 0-6.72 6.25-1.67 26.3-11.45 29.68-6.63 2.3-15.99-5.82-20.98-9.43-2.76-1.99-6.31-4.94-9.79-2.8-7.24 4.46-6.19 27.16-18.21 26.65-6.1-.26-12.88-8.19-16.72-12.49-1.95-2.18-4.95-6.3-8.27-5.97-2.86.28-5.14 3.78-6.57 5.97-3.84 5.88-8.87 17.95-17.44 16.76-7.05-.98-11.55-10.26-14.86-15.76-1.47-2.44-4.02-6.66-7.15-6.97-3.03-.3-5.62 2.99-7.41 4.99-4.41 4.91-12.99 15.89-20.54 13.07-8.81-3.28-8.72-23.76-16.22-26.7-3.08-1.21-6.48 1.56-8.82 3.25-4.82 3.48-13.63 11.02-20 9.7-11.12-2.32-5.48-23.56-12.43-29.89-2.71-2.44-5.62-1.23-8.57 0-6.95 2.83-25.19 14.62-27.89.55v-8l.81-11c-.12-6.31-3.56-9.75-9.92-8.58-6.45 1.18-20.39 6.56-25.69 1.27-5.79-5.79.54-18.98 1.39-25.69.79-6.29-2.36-9.8-8.7-9.92l-11 .77h-4c-1.52.13-3.53.13-4.85 0-11.63-3.52-2.72-19.22 0-25.85 1.46-3.09 4-7.47 1.32-10.49-6.18-6.96-27.51-1.46-29.81-12.51-1.29-6.23 5.64-14.39 9.1-19 1.84-2.45 5.14-6.55 3.85-9.82-3.09-7.85-24.65-7.24-27-17.2-1.68-7.11 8.66-15.33 13.37-19.56 2.65-2.37 6.56-5.37 4.31-9.33C20.8 270.94-.24 265.71 2.33 254c1.43-6.52 11.46-11.03 16.67-14.44 2.44-1.59 6.41-4.14 5.95-7.55-.34-2.49-3.22-4.71-4.97-6.29-4.99-4.55-16.62-13.85-12.65-21.62 2.66-5.2 13.41-7.85 18.67-9.8 2.95-1.09 7.28-2.79 7.87-6.34.45-2.67-1.86-5.88-3.31-7.96-3.45-4.98-11.36-13.54-10.04-19.98 2.46-12.04 27.36-4.74 31.1-14.13.99-2.48-.49-5.6-1.55-7.89-2.93-6.89-13.66-24.27 0-26.89H58l11 .81c6.35-.12 9.53-3.61 8.53-9.92-1.03-6.54-6.58-20.32-1.22-25.69 5.79-5.79 18.98.54 25.69 1.39 6.29.79 9.8-2.36 9.92-8.7l-.77-11v-4c-.13-1.52-.13-3.53 0-4.98 3.81-12.54 21.16-1.23 27.85 1.59 2.98 1.36 5.85 2.42 8.57 0 6.07-5.65 2.62-24.1 9.56-28.75 7.03-4.71 17.46 4.59 22.87 8.5 2.1 1.52 5.2 3.96 7.96 3.51 3.54-.58 5.26-4.93 6.34-7.87 2.18-5.87 4.29-16.54 10.74-18.95 7.6-2.85 16.12 8.01 20.54 12.93 1.79 2 4.38 5.29 7.41 4.99 3.13-.31 5.68-4.55 7.2-6.97 3.92-6.27 5.92-11.64 12.81-15.26Zm0 47.65c-17.34 5.6-9.78 28.84 6 25.08 11.12-2.65 12.4-15.87 5.78-22.19-3.46-3.31-7.33-3.45-11.78-2.89Zm-35 25c-32.03 3.93-70.31 27.48-93 49.62-9.42 9.2-20.33 18.67-23.5 31.99-2.14 9-1.36 20.33 1.97 29 2.58 6.74 8.07 13.37 5.89 21-4.16 14.65-27.65 17.43-34.71 25.52-4.55 5.2-3.73 24.31-3.65 31.48l3.75 28c1.72 10.32 3.95 24.38 7.71 34l6.23 13c4.88 10.62 6.16 14.83 14.26 24 3.83 4.33 13.36 15.53 18.05 17.71 3.6 1.87 8.19.49 12 0l24-3.41c2.74.23 5.79 1.73 7.98 3.34 8.59 6.29 9.13 21.48 10.59 31.36.49 3.3.39 7.03 2.28 9.9 3.25 4.91 15.47 8.11 21.15 9.82 22.35 6.71 38.64 9.55 62 9.28l9-.83c18.61-1.86 27.01-3.41 45-8.89 5.13-1.56 16.25-5 19.15-9.38 1.89-2.87 1.79-6.6 2.28-9.9 1.46-9.88 2.19-25.06 10.61-31.36 2.16-1.62 5.24-3.12 7.96-3.34l34 4.1c3.33-.78 6.12-3.12 8.38-5.57 11.64-12.61 15.43-22.96 22.4-37.83l13.47-30c3.15-9.56 7.7-32.06 7.75-42v-14c-.01-6.37-.03-16.64-5.21-20.96-10.23-8.53-35.1-11.41-33.68-29.04.48-6.01 8.09-18.88 11.14-25 1.85-3.73 4.25-7.67 3.32-12-.73-3.4-4.15-8.1-6.16-11-4.74-6.83-8.82-12.65-14.28-19-19.65-22.86-44.93-40.78-73.13-51.42-5.11-1.93-24.41-8.32-29-8.3-4.76.02-7.85 3.62-11 6.72-6.19 6.11-18.63 20.85-28 20.02-8.19-.73-19.35-13.29-24.96-19.01-4.12-4.19-5.85-7.15-12.04-7.62ZM70 183.4c-5.18 1.66-9.45 4.97-10.59 10.6-1.68 8.21 6.14 17.03 14.59 15.43 16.11-3.06 14.2-28.06-4-26.03Zm367 .01c-5 1.58-8.4 4.21-9.61 9.59-1.95 8.69 5.22 18.49 14.61 16.45 16.12-3.49 13.45-27.72-5-26.04ZM141 399.37c-17.98 4.18-13.8 28.13 4 25.42 15.38-2.35 13.97-25.97-4-25.42Zm227 0c-16.82 3.91-14.4 24.29 0 25.52 19.28 1.66 19.42-26.11 0-25.52ZM197 345c-1.38 7.34-6.24 13.87-10.33 20-1.36 2.03-3.53 5.77-5.85 6.65-3.26 1.24-16.09-4.31-19.82-5.7-14.73-5.51-28.66-12.87-42-21.14-3.55-2.2-13.13-7.96-15.26-10.99-2.35-3.34-1.61-7.93-1.78-11.82l-.91-8v-13l.86-10c2.52-36.84 10.26-66.83 26.84-100 3.2-6.39 15.16-28.39 19.63-32.36 4.22-3.76 25.32-10.99 31.62-12.78l22-5.65c2.06-.44 7.02-1.61 8.9-1.17 5.91 1.38 6.21 13.38 12.2 14.94 2.35.61 8.27-.56 10.9-.94h9l13-1.04 36 3c1.12-5.96 4.53-16.77 12-15.94 10.09 1.11 33.06 8.18 43 11.89 4.8 1.79 14.05 4.8 17.48 8.32 4.57 4.69 15.4 24.99 18.77 31.73 15.78 31.56 24.42 61.8 26.84 97l.91 10-.83 26c-.32 3.34.31 6.92-1.77 9.82-1.86 2.59-11.24 8.46-14.4 10.49-13.83 8.9-27.76 15.61-43 21.69-3.59 1.43-16.64 6.86-19.82 5.65-2.32-.88-4.49-4.62-5.85-6.65-3.86-5.77-9.03-13.18-10.33-20l25-11v-2c-8.98-4.51-4.97-3.04-20 2.31l-23 7.04c-22.76 5.17-56.16 5.26-79 0l-23-6.04c-3.16-1.11-13.63-5.77-16-5.78-2.17 0-4.95 1.62-7 2.47v2l25 11Zm5-108.7c-13.76 2.58-22.69 11.73-24.7 25.7-2.69 18.61 10.49 38.23 30.7 35.82 34.53-4.13 31.74-64.45-6-61.52Zm103-.01c-12.76 2.13-22.1 10.79-24.53 23.71-3.66 19.39 9.13 40.45 30.53 37.82 34.21-4.21 31.59-64.27-6-61.53Z"/></svg>